<?xml version="1.0" encoding="UTF-8" standalone="no"?>
<svg width="50px" height="80px" viewBox="0 0 50 80" version="1.1" xmlns="http://www.w3.org/2000/svg" xmlns:xlink="http://www.w3.org/1999/xlink">
    <!-- Generator: Sketch 3.8.2 (29753) - http://www.bohemiancoding.com/sketch -->
    <title>park</title>
    <desc>Created with Sketch.</desc>
    <defs>
        <path d="M25,79.2021484 C23.7490234,79.2021484 50,38.8071187 50,25 C50,11.1928813 38.8071187,7.10542736e-15 25,7.10542736e-15 C11.1928813,7.10542736e-15 0,11.1928813 0,25 C0,38.8071187 26.2509766,79.2021484 25,79.2021484 Z" id="path-1"></path>
        <filter x="-50%" y="-50%" width="200%" height="200%" filterUnits="objectBoundingBox" id="filter-2">
            <feOffset dx="2" dy="3" in="SourceAlpha" result="shadowOffsetOuter1"></feOffset>
            <feGaussianBlur stdDeviation="1.5" in="shadowOffsetOuter1" result="shadowBlurOuter1"></feGaussianBlur>
            <feColorMatrix values="0 0 0 0 0.481425383   0 0 0 0 0.481425383   0 0 0 0 0.481425383  0 0 0 0.528900589 0" type="matrix" in="shadowBlurOuter1"></feColorMatrix>
        </filter>
    </defs>
    <g id="Page-1" stroke="none" stroke-width="1" fill="none" fill-rule="evenodd">
        <g id="park">
            <g id="marker">
                <g id="Oval-1-Copy">
                    <use fill="black" fill-opacity="1" filter="url(#filter-2)" xlink:href="#path-1"></use>
                    <use fill="#28A810" fill-rule="evenodd" xlink:href="#path-1"></use>
                </g>
                <circle id="Oval-2" fill="#FFFFFF" cx="25" cy="25" r="18"></circle>
            </g>
            <g id="tree" transform="translate(10.000000, 9.000000)" fill="#28A811">
                <rect id="Rectangle-9" x="10.9090909" y="12.8571429" width="8.18181818" height="17.1428571"></rect>
                <path d="M11.2878788,6.20300752 C13.071695,2.95726669 15,0 15,0 C15,0 16.410717,2.36010154 18.1818182,5.58270677 C19.5925351,8.14957523 24.5454545,11.7857143 24.5454545,11.7857143 C24.5454545,11.7857143 20.2543501,10.5451128 18.7121212,10.5451128 C16.2686714,10.5451128 12.9589485,10.2308074 10.2272727,10.5451128 C7.56881445,10.8509937 5.45454545,11.7857143 5.45454545,11.7857143 C5.45454545,11.7857143 9.88987685,8.74674037 11.2878788,6.20300752 Z" id="Triangle-1"></path>
                <path d="M30,14.0847982 C29.188162,13.3117769 28.6956522,12.8571429 28.6956522,12.8571429 C28.6956522,12.8571429 25.6774357,15.4111459 22.8853755,18.2142857 C22.0141516,19.0889668 22.0054548,20.3818877 20.6027668,20.8928571 C18.4824457,21.6652451 15,21.4285714 15,21.4285714 C15,21.4285714 17.0642313,23.2998842 21.2252964,23.0357143 C23.4837087,22.8923364 26.805072,22.9004233 30,22.9399691 L30,14.0847982 Z" id="Combined-Shape" transform="translate(22.500000, 17.959204) scale(-1, 1) translate(-22.500000, -17.959204) "></path>
                <path d="M15,14.0847982 C14.188162,13.3117769 13.6956522,12.8571429 13.6956522,12.8571429 C13.6956522,12.8571429 10.6774357,15.4111459 7.88537549,18.2142857 C7.01415163,19.0889668 7.00545484,20.3818877 5.6027668,20.8928571 C3.4824457,21.6652451 0,21.4285714 0,21.4285714 C0,21.4285714 2.06423132,23.2998842 6.22529644,23.0357143 C8.4837087,22.8923364 11.805072,22.9004233 15,22.9399691 L15,14.0847982 Z" id="Combined-Shape"></path>
                <path d="M10.2272727,16.0714286 C12.5207508,13.2682888 15,10.7142857 15,10.7142857 C15,10.7142857 16.813779,12.7525552 19.0909091,15.5357143 C20.904688,17.7525552 27.2727273,20.8928571 27.2727273,20.8928571 C27.2727273,20.8928571 21.755593,19.8214286 19.7727273,19.8214286 C16.631149,19.8214286 12.3757909,19.5499831 8.86363636,19.8214286 C5.44561858,20.0855985 2.72727273,20.8928571 2.72727273,20.8928571 C2.72727273,20.8928571 8.42984166,18.2682888 10.2272727,16.0714286 Z" id="Triangle-1"></path>
                <path d="M11.2878788,9.41729323 C13.071695,6.1715524 15,3.21428571 15,3.21428571 C15,3.21428571 16.410717,5.57438726 18.1818182,8.79699248 C19.5925351,11.3638609 24.5454545,15 24.5454545,15 C24.5454545,15 20.2543501,13.7593985 18.7121212,13.7593985 C16.2686714,13.7593985 12.9589485,13.4450932 10.2272727,13.7593985 C7.56881445,14.0652795 5.45454545,15 5.45454545,15 C5.45454545,15 9.88987685,11.9610261 11.2878788,9.41729323 Z" id="Triangle-1"></path>
                <path d="M10.2272727,12.8571429 C12.5207508,10.0540031 15,7.5 15,7.5 C15,7.5 16.813779,9.53826952 19.0909091,12.3214286 C20.904688,14.5382695 27.2727273,17.6785714 27.2727273,17.6785714 C27.2727273,17.6785714 21.755593,16.6071429 19.7727273,16.6071429 C16.631149,16.6071429 12.3757909,16.3356973 8.86363636,16.6071429 C5.44561858,16.8713128 2.72727273,17.6785714 2.72727273,17.6785714 C2.72727273,17.6785714 8.42984166,15.0540031 10.2272727,12.8571429 Z" id="Triangle-1"></path>
            </g>
        </g>
    </g>
</svg>